<svg xmlns="http://www.w3.org/2000/svg" viewBox="0 0 96 96" role="img" aria-labelledby="markTitle markDesc">
  <title id="markTitle">FuelMate brand mark</title>
  <desc id="markDesc">FuelMate icon with a coral fuel drop and delivery route.</desc>
  <defs>
    <linearGradient id="markCoral" x1="0%" y1="0%" x2="100%" y2="100%">
      <stop offset="0%" stop-color="#F6453A"/>
      <stop offset="100%" stop-color="#FF7A65"/>
    </linearGradient>
    <linearGradient id="markMint" x1="0%" y1="0%" x2="100%" y2="100%">
      <stop offset="0%" stop-color="#E0EEE8"/>
      <stop offset="100%" stop-color="#8FB9AD"/>
    </linearGradient>
  </defs>
  <rect width="96" height="96" rx="26" fill="#223039"/>
  <path d="M18 50c0-19 15-34 34-34 8 0 15 2 22 7" fill="none" stroke="url(#markMint)" stroke-linecap="round" stroke-width="7"/>
  <path d="M15 58c8 14 22 23 37 23 13 0 25-6 34-16" fill="none" stroke="url(#markCoral)" stroke-linecap="round" stroke-width="7"/>
  <path d="M20 58h14" fill="none" stroke="#FFF8F1" stroke-linecap="round" stroke-width="5"/>
  <path d="M25 69h10" fill="none" stroke="#FFF8F1" stroke-linecap="round" stroke-width="5"/>
  <path d="M48 24c-11 15-16 24-16 33 0 11 9 20 20 20s20-9 20-20c0-9-5-18-16-33-2-3-6-3-8 0z" fill="url(#markCoral)"/>
  <path d="M48 56c0 6 5 10 10 10s10-4 10-10c0-4-2-8-7-14-1-2-5-2-6 0-5 6-7 10-7 14z" fill="#FFF6EF" opacity="0.28"/>
  <path d="M65 37l15 9" fill="none" stroke="#FFF8F1" stroke-linecap="round" stroke-width="5"/>
  <path d="M61 49l18-10" fill="none" stroke="#FFF8F1" stroke-linecap="round" stroke-width="5"/>
  <path d="M79 40h6l4 4-2 7 5 1" fill="none" stroke="#FFF8F1" stroke-linecap="round" stroke-linejoin="round" stroke-width="4"/>
</svg>
